<svg width="145" height="48" viewBox="0 0 145 48" fill="none" xmlns="http://www.w3.org/2000/svg">
<path d="M29 33C28.45 33 27.979 32.8043 27.587 32.413C27.1957 32.021 27 31.55 27 31V17C27 16.45 27.1957 15.979 27.587 15.587C27.979 15.1957 28.45 15 29 15H43C43.55 15 44.021 15.1957 44.413 15.587C44.8043 15.979 45 16.45 45 17V31C45 31.55 44.8043 32.021 44.413 32.413C44.021 32.8043 43.55 33 43 33H29ZM30 29H42L38.25 24L35.25 28L33 25L30 29Z" fill="#73AFF4"/>
<path d="M56.831 29.5V28.2045H57.1719C57.6567 28.2045 58.0336 28.0492 58.3026 27.7386C58.5715 27.428 58.7647 26.9261 58.8821 26.233C59.0033 25.5398 59.0848 24.6212 59.1264 23.4773L59.331 17.8636H66.4219V29.5H65.0128V19.1136H60.6719L60.4901 23.75C60.4446 24.9697 60.3329 26.0076 60.1548 26.8636C59.9768 27.7197 59.6643 28.3731 59.2173 28.8239C58.7704 29.2746 58.1188 29.5 57.2628 29.5H56.831ZM72.6009 29.6818C71.813 29.6818 71.1217 29.4943 70.527 29.1193C69.9361 28.7443 69.474 28.2197 69.1406 27.5455C68.8111 26.8712 68.6463 26.0833 68.6463 25.1818C68.6463 24.2727 68.8111 23.4792 69.1406 22.8011C69.474 22.1231 69.9361 21.5966 70.527 21.2216C71.1217 20.8466 71.813 20.6591 72.6009 20.6591C73.3887 20.6591 74.0781 20.8466 74.669 21.2216C75.2637 21.5966 75.7259 22.1231 76.0554 22.8011C76.3887 23.4792 76.5554 24.2727 76.5554 25.1818C76.5554 26.0833 76.3887 26.8712 76.0554 27.5455C75.7259 28.2197 75.2637 28.7443 74.669 29.1193C74.0781 29.4943 73.3887 29.6818 72.6009 29.6818ZM72.6009 28.4773C73.1993 28.4773 73.6918 28.3239 74.0781 28.017C74.4645 27.7102 74.7505 27.3068 74.9361 26.8068C75.1217 26.3068 75.2145 25.7652 75.2145 25.1818C75.2145 24.5985 75.1217 24.0549 74.9361 23.5511C74.7505 23.0473 74.4645 22.6402 74.0781 22.3295C73.6918 22.0189 73.1993 21.8636 72.6009 21.8636C72.0024 21.8636 71.5099 22.0189 71.1236 22.3295C70.7372 22.6402 70.4512 23.0473 70.2656 23.5511C70.08 24.0549 69.9872 24.5985 69.9872 25.1818C69.9872 25.7652 70.08 26.3068 70.2656 26.8068C70.4512 27.3068 70.7372 27.7102 71.1236 28.017C71.5099 28.3239 72.0024 28.4773 72.6009 28.4773ZM83.9886 20.7727V22.0227H79.9432V29.5H78.6023V20.7727H83.9886ZM89.0384 29.6818C88.2505 29.6818 87.5592 29.4943 86.9645 29.1193C86.3736 28.7443 85.9115 28.2197 85.5781 27.5455C85.2486 26.8712 85.0838 26.0833 85.0838 25.1818C85.0838 24.2727 85.2486 23.4792 85.5781 22.8011C85.9115 22.1231 86.3736 21.5966 86.9645 21.2216C87.5592 20.8466 88.2505 20.6591 89.0384 20.6591C89.8262 20.6591 90.5156 20.8466 91.1065 21.2216C91.7012 21.5966 92.1634 22.1231 92.4929 22.8011C92.8262 23.4792 92.9929 24.2727 92.9929 25.1818C92.9929 26.0833 92.8262 26.8712 92.4929 27.5455C92.1634 28.2197 91.7012 28.7443 91.1065 29.1193C90.5156 29.4943 89.8262 29.6818 89.0384 29.6818ZM89.0384 28.4773C89.6368 28.4773 90.1293 28.3239 90.5156 28.017C90.902 27.7102 91.188 27.3068 91.3736 26.8068C91.5592 26.3068 91.652 25.7652 91.652 25.1818C91.652 24.5985 91.5592 24.0549 91.3736 23.5511C91.188 23.0473 90.902 22.6402 90.5156 22.3295C90.1293 22.0189 89.6368 21.8636 89.0384 21.8636C88.4399 21.8636 87.9474 22.0189 87.5611 22.3295C87.1747 22.6402 86.8887 23.0473 86.7031 23.5511C86.5175 24.0549 86.4247 24.5985 86.4247 25.1818C86.4247 25.7652 86.5175 26.3068 86.7031 26.8068C86.8887 27.3068 87.1747 27.7102 87.5611 28.017C87.9474 28.3239 88.4399 28.4773 89.0384 28.4773ZM93.8991 22.0227V20.7727H100.99V22.0227H98.1264V29.5H96.7855V22.0227H93.8991ZM104.287 27.5227L108.491 20.7727H110.037V29.5H108.696V22.75L104.514 29.5H102.946V20.7727H104.287V27.5227ZM112.493 29.5V20.7727H119.357V29.5H118.016V22.0227H113.834V29.5H112.493Z" fill="black"/>
</svg>
